<?xml version="1.0" standalone="no"?>
<!DOCTYPE svg PUBLIC "-//W3C//DTD SVG 20010904//EN"
 "http://www.w3.org/TR/2001/REC-SVG-20010904/DTD/svg10.dtd">
<svg version="1.0" xmlns="http://www.w3.org/2000/svg"
 width="500.000000pt" height="500.000000pt" viewBox="0 0 500.000000 500.000000"
 preserveAspectRatio="xMidYMid meet">

<g transform="translate(0.000000,500.000000) scale(0.100000,-0.100000)"
fill="#000000" stroke="none">
<path d="M2387 4273 c-20 -20 18 -93 49 -93 23 0 17 54 -9 78 -25 24 -30 26
-40 15z"/>
<path d="M2606 4265 c-11 -29 -7 -52 13 -76 l19 -24 11 28 c8 22 8 35 -1 55
-16 31 -33 38 -42 17z"/>
<path d="M2692 4225 c-15 -33 -15 -100 -1 -128 14 -26 60 -77 70 -77 11 0 29
59 29 95 0 32 -53 125 -76 132 -6 2 -16 -8 -22 -22z"/>
<path d="M2282 4215 c-34 -29 -57 -84 -47 -115 9 -27 21 -25 55 8 31 31 47 90
33 117 -9 15 -13 14 -41 -10z"/>
<path d="M2521 4185 c-26 -30 -31 -44 -31 -86 0 -27 7 -64 16 -81 l16 -30 24
22 c13 13 31 42 40 65 14 37 14 49 2 91 -7 26 -18 49 -24 51 -6 2 -25 -12 -43
-32z"/>
<path d="M2865 4200 c-36 -14 -50 -41 -46 -92 2 -26 18 -22 52 11 19 20 29 40
29 60 0 33 -3 35 -35 21z"/>
<path d="M1982 4183 c-32 -61 -21 -131 27 -177 35 -33 47 -28 61 23 13 51 4
92 -32 135 -33 40 -43 44 -56 19z"/>
<path d="M2170 4184 c0 -21 18 -54 30 -54 14 0 12 44 -2 58 -17 17 -28 15 -28
-4z"/>
<path d="M3037 4163 c-4 -3 -7 -19 -7 -35 0 -32 51 -95 68 -84 21 13 13 63
-14 95 -26 32 -35 36 -47 24z"/>
<path d="M2111 4146 c-16 -20 -17 -66 -1 -96 12 -23 13 -23 26 -5 21 29 16
115 -6 115 -4 0 -13 -6 -19 -14z"/>
<path d="M2385 4148 c-29 -15 -45 -39 -45 -65 0 -17 4 -21 18 -16 31 11 62 46
62 70 0 26 -6 27 -35 11z"/>
<path d="M1860 4125 c0 -28 32 -65 55 -65 22 0 19 46 -5 70 -28 28 -50 26 -50
-5z"/>
<path d="M2952 4085 c-32 -40 -36 -88 -13 -141 22 -50 34 -52 64 -11 25 32 26
101 3 146 -20 38 -29 39 -54 6z"/>
<path d="M3166 4088 c-24 -40 -27 -65 -12 -103 19 -44 35 -42 59 7 15 31 16
43 7 77 -12 46 -32 53 -54 19z"/>
<path d="M1758 4084 c-17 -29 -29 -88 -23 -114 7 -30 55 -90 73 -90 18 0 35
59 29 102 -4 29 -16 51 -40 76 -19 19 -37 30 -39 26z"/>
<path d="M2155 4029 c-48 -43 -65 -78 -65 -139 0 -37 4 -50 14 -50 21 0 74 47
91 81 17 31 20 125 6 134 -6 3 -26 -9 -46 -26z"/>
<path d="M2809 4031 c-31 -32 -39 -71 -14 -71 25 0 72 27 79 45 22 59 -16 74
-65 26z"/>
<path d="M2665 4031 c-10 -33 28 -91 61 -91 2 0 4 13 4 28 0 29 -11 48 -42 71
-14 10 -17 9 -23 -8z"/>
<path d="M1884 3996 c-12 -67 18 -131 76 -161 32 -16 35 -14 45 32 9 45 -24
117 -67 143 -44 26 -46 26 -54 -14z"/>
<path d="M2295 4008 c-26 -20 -55 -73 -55 -100 0 -7 4 -19 9 -27 21 -34 91 47
91 106 0 42 -12 47 -45 21z"/>
<path d="M2390 4017 c0 -32 24 -66 55 -82 43 -20 45 -19 45 9 0 32 -37 73 -72
82 -22 5 -28 2 -28 -9z"/>
<path d="M3255 3996 c-30 -30 -33 -56 -5 -56 25 0 62 36 58 57 -5 27 -26 26
-53 -1z"/>
<path d="M2608 3984 c-35 -18 -58 -62 -58 -109 0 -44 13 -44 56 -1 29 29 34
41 34 80 0 25 -1 46 -2 46 -2 -1 -15 -7 -30 -16z"/>
<path d="M3081 3978 c-10 -25 7 -79 27 -86 16 -5 27 46 16 76 -12 34 -32 39
-43 10z"/>
<path d="M1640 3967 c0 -29 27 -56 61 -59 19 -2 23 1 21 17 -4 23 -47 65 -68
65 -8 0 -14 -10 -14 -23z"/>
<path d="M2838 3945 c-29 -16 -46 -51 -31 -66 24 -24 113 31 113 71 0 15 -51
12 -82 -5z"/>
<path d="M3321 3914 c-12 -15 -21 -39 -21 -55 0 -30 29 -99 41 -99 18 0 49 55
49 87 0 36 -24 93 -40 93 -4 0 -18 -12 -29 -26z"/>
<path d="M2656 3914 c-13 -33 -5 -65 23 -96 l29 -33 13 28 c10 23 10 33 -4 62
-20 41 -52 62 -61 39z"/>
<path d="M1617 3899 c-19 -26 -22 -66 -7 -89 8 -13 11 -13 24 0 23 23 30 72
13 94 -13 18 -14 18 -30 -5z"/>
<path d="M3192 3904 c-12 -8 -22 -24 -22 -36 0 -19 4 -20 42 -15 42 6 84 39
72 58 -9 15 -68 10 -92 -7z"/>
<path d="M2405 3890 c-10 -16 39 -60 74 -66 l33 -7 -16 32 c-9 17 -18 31 -19
31 -1 0 -17 4 -34 9 -18 5 -35 6 -38 1z"/>
<path d="M3026 3878 c-20 -29 -20 -51 0 -90 l17 -32 18 23 c22 27 24 59 7 96
-14 31 -22 31 -42 3z"/>
<path d="M3442 3888 c-16 -16 -15 -50 3 -74 15 -19 15 -19 30 0 24 32 -6 101
-33 74z"/>
<path d="M1484 3855 c-24 -59 -18 -109 18 -151 30 -34 33 -35 45 -18 40 54 36
135 -8 182 -27 30 -38 28 -55 -13z"/>
<path d="M2324 3878 c-22 -10 -44 -47 -44 -73 0 -24 59 4 75 36 26 49 16 60
-31 37z"/>
<path d="M2844 3850 c-25 -10 -54 -47 -54 -69 0 -10 9 -12 38 -8 38 6 82 45
82 73 0 16 -32 18 -66 4z"/>
<path d="M1884 3836 c-9 -23 5 -68 19 -63 16 5 16 69 0 74 -7 3 -16 -2 -19
-11z"/>
<path d="M1676 3821 c-17 -7 -17 -9 9 -29 29 -23 88 -29 114 -13 11 7 9 13 -8
30 -22 22 -76 27 -115 12z"/>
<path d="M2160 3804 c0 -28 40 -74 65 -74 17 0 20 32 5 60 -5 10 -23 23 -40
28 -28 10 -30 9 -30 -14z"/>
<path d="M3169 3811 l-23 -18 23 -13 c29 -15 83 -6 105 19 15 17 16 19 1 25
-32 12 -83 6 -106 -13z"/>
<path d="M2375 3800 c-33 -14 -62 -47 -75 -85 -7 -20 -10 -39 -7 -42 10 -9 80
31 98 57 9 14 20 37 23 53 7 29 -2 33 -39 17z"/>
<path d="M2615 3791 c-10 -31 5 -69 37 -96 40 -34 48 -32 48 14 0 32 -6 44
-35 70 -42 37 -42 37 -50 12z"/>
<path d="M2953 3799 c-11 -14 -16 -40 -14 -70 0 -9 11 -29 23 -44 20 -26 22
-27 35 -9 20 27 16 76 -10 108 -19 23 -25 26 -34 15z"/>
<path d="M1953 3788 c-17 -21 -23 -52 -14 -67 13 -20 41 3 41 33 0 33 -14 50
-27 34z"/>
<path d="M3529 3779 c-24 -24 -23 -72 3 -77 25 -5 58 34 58 68 0 23 -4 30 -20
30 -11 0 -29 -9 -41 -21z"/>
<path d="M2440 3775 c0 -20 44 -47 72 -43 l23 3 -27 28 c-29 29 -68 36 -68 12z"/>
<path d="M1603 3757 c-27 -30 -34 -53 -24 -79 8 -22 8 -22 35 6 25 28 35 79
17 90 -4 3 -17 -5 -28 -17z"/>
<path d="M1350 3746 c0 -25 30 -66 49 -66 5 0 16 -3 25 -6 12 -5 16 1 16 23 0
34 -22 58 -62 68 -25 6 -28 5 -28 -19z"/>
<path d="M3417 3740 c-20 -23 -27 -43 -27 -73 0 -43 27 -110 45 -110 6 0 21
15 33 34 19 28 23 42 18 78 -3 24 -14 57 -25 73 l-18 29 -26 -31z"/>
<path d="M3129 3730 c-21 -17 -22 -21 -9 -30 25 -16 76 -11 101 10 21 17 22
21 9 30 -25 16 -76 11 -101 -10z"/>
<path d="M3306 3728 c-34 -30 -39 -72 -10 -76 26 -4 64 40 64 74 0 30 -21 31
-54 2z"/>
<path d="M1994 3716 c-13 -53 14 -87 36 -45 9 16 9 28 1 45 -14 31 -29 31 -37
0z"/>
<path d="M2816 3718 c-13 -13 -27 -33 -31 -45 -5 -19 -2 -23 15 -23 45 0 100
44 100 79 0 20 -58 12 -84 -11z"/>
<path d="M1734 3718 c-12 -18 34 -48 75 -48 55 0 68 13 40 39 -25 23 -102 30
-115 9z"/>
<path d="M2135 3711 c-10 -31 5 -70 35 -91 40 -28 50 -25 50 16 0 27 -7 43
-31 65 -37 34 -46 36 -54 10z"/>
<path d="M2411 3704 c-21 -27 -28 -69 -13 -78 5 -3 18 2 30 10 16 11 22 25 22
55 0 46 -11 49 -39 13z"/>
<path d="M2071 3704 c-1 -11 4 -46 10 -78 5 -31 9 -62 7 -67 -2 -6 -35 13 -73
42 -84 64 -68 39 21 -32 52 -41 66 -58 74 -92 6 -23 29 -100 51 -171 22 -70
38 -130 36 -133 -15 -15 -320 141 -439 224 -43 29 -78 52 -78 49 0 -2 30 -28
68 -59 78 -63 229 -156 363 -223 l94 -46 78 -192 c43 -105 81 -197 84 -205 7
-15 5 -15 -112 22 -38 11 -116 44 -172 72 -56 28 -100 48 -97 44 17 -28 223
-135 380 -199 18 -7 25 -27 43 -125 12 -65 20 -120 17 -122 -3 -3 -90 41 -193
97 -317 173 -521 309 -645 430 -81 80 -78 58 5 -35 61 -69 170 -151 326 -245
69 -42 116 -76 107 -78 -24 -5 -263 45 -377 79 -56 16 -103 28 -105 26 -2 -2
23 -12 56 -22 33 -10 60 -22 60 -26 0 -5 -20 -14 -45 -20 -25 -6 -44 -14 -41
-16 2 -2 33 3 69 12 63 16 68 15 134 -4 37 -11 141 -38 231 -60 126 -31 173
-47 209 -72 l47 -33 -63 -12 c-37 -8 -92 -30 -130 -52 -86 -50 -110 -59 -217
-82 -94 -20 -78 -27 20 -9 32 6 60 8 63 5 3 -3 -16 -20 -42 -38 -78 -54 -84
-60 -50 -45 17 7 92 44 168 82 120 59 147 68 206 73 59 4 75 1 110 -19 47 -26
97 -94 108 -148 16 -73 9 -351 -10 -434 -19 -79 -75 -205 -102 -227 -8 -7 -56
-17 -106 -22 -57 -5 -117 -19 -162 -37 -40 -15 -92 -31 -117 -35 -24 -4 -65
-16 -90 -28 -37 -17 -68 -21 -178 -23 -73 -2 -136 -6 -139 -9 -4 -3 54 -6 129
-6 106 0 147 4 190 19 113 39 142 -7 31 -49 -32 -12 -119 -30 -193 -41 -86
-12 -148 -27 -170 -39 -19 -11 -62 -33 -96 -49 -70 -34 -83 -47 -94 -96 -8
-35 -7 -36 10 -20 10 9 21 28 24 41 5 20 30 36 118 79 l111 55 123 0 c67 0
129 -3 138 -6 17 -7 -23 -32 -130 -83 -34 -16 -65 -34 -69 -40 -3 -7 8 -3 27
9 18 11 39 20 47 20 7 0 54 20 105 44 50 24 109 47 130 52 l39 7 -39 -47 c-51
-62 -96 -84 -186 -92 -89 -7 -171 -29 -188 -49 -11 -13 -9 -13 21 -1 19 8 55
17 81 21 l48 7 -26 -46 c-14 -25 -39 -57 -55 -71 -35 -29 -31 -32 11 -10 17 9
39 34 51 58 25 49 35 57 70 57 21 0 29 -8 43 -42 9 -24 12 -44 8 -46 -5 -1
-18 -10 -28 -18 -18 -14 -17 -14 5 -3 22 10 23 10 18 -13 -4 -15 0 -33 9 -46
21 -31 31 -27 27 11 -2 17 0 37 4 42 5 6 47 9 106 7 111 -4 113 -10 22 -61
-30 -17 -59 -39 -65 -50 -16 -31 -12 -76 10 -96 19 -17 19 -17 7 14 -17 46 5
79 78 118 56 29 60 30 84 15 18 -11 22 -11 14 -2 -36 40 1 87 77 97 36 5 40 4
40 -16 0 -12 -7 -38 -15 -58 -20 -48 -19 -75 6 -134 13 -29 19 -60 16 -76 l-5
-28 19 24 c25 31 24 52 -6 111 -14 27 -25 53 -25 58 0 5 12 26 26 47 16 24 24
47 21 62 -2 13 0 23 5 23 5 0 34 12 64 26 62 29 82 26 119 -18 l26 -30 -28
-15 c-32 -17 -43 -31 -43 -57 0 -17 3 -16 24 7 33 35 70 43 102 23 19 -13 23
-23 19 -39 -6 -21 -5 -21 9 -3 17 21 8 49 -20 60 -13 5 -10 11 17 29 39 26 51
75 25 97 -28 22 -17 28 32 18 57 -12 91 -48 92 -97 0 -28 -8 -42 -44 -75 -25
-24 -51 -60 -61 -88 -9 -25 -28 -57 -41 -69 -25 -24 -31 -64 -13 -89 8 -12 9
-9 5 13 -5 22 2 38 32 80 22 28 48 67 58 85 21 37 52 42 78 13 19 -21 49 -34
112 -50 57 -15 77 -40 72 -90 -3 -31 -1 -37 9 -29 7 6 13 25 13 43 0 51 -40
92 -108 111 -93 27 -108 53 -77 128 14 32 13 40 -1 76 l-17 41 38 34 c23 22
35 40 31 50 -9 25 80 21 94 -4 13 -25 13 -77 -1 -102 -8 -16 -7 -25 7 -40 9
-10 25 -19 34 -19 28 0 29 -10 4 -47 -17 -26 -21 -40 -14 -53 14 -26 39 -33
33 -10 -5 19 44 99 60 100 20 0 67 -32 87 -60 19 -27 21 -38 14 -78 -11 -58
-12 -192 -2 -192 17 0 27 43 26 106 -1 38 2 89 7 113 l8 43 61 -4 c34 -3 77
-13 96 -23 32 -17 34 -17 21 -1 -24 29 -67 46 -132 53 -40 4 -73 14 -97 31
-20 14 -51 29 -69 34 -36 10 -78 61 -69 84 11 29 97 45 136 24 10 -5 27 -25
38 -44 17 -29 31 -38 89 -55 94 -28 117 -45 109 -84 -6 -30 -6 -30 14 -12 44
40 20 70 -83 106 -106 36 -101 44 30 43 l116 -2 48 -35 c38 -29 48 -43 54 -76
4 -22 12 -45 19 -50 10 -9 11 -2 6 32 -9 56 -22 79 -64 108 -34 23 -35 24 -13
31 20 5 19 6 -7 7 -15 1 -41 12 -57 26 -30 24 -86 45 -124 45 -77 0 -225 70
-225 106 0 19 56 19 103 -1 20 -8 57 -15 83 -15 43 0 49 -4 95 -53 l48 -52
106 3 107 3 31 -34 c33 -35 66 -57 88 -57 7 0 -6 13 -27 29 -21 15 -50 40 -63
55 -23 25 -29 26 -127 26 -100 0 -102 0 -119 28 -10 15 -27 35 -39 45 -21 17
-20 17 34 16 30 -1 96 -14 145 -29 50 -15 108 -30 130 -33 37 -5 36 -5 -10 9
-70 21 -158 56 -170 67 -6 6 44 8 130 4 111 -4 127 -3 75 5 -61 9 -162 14
-430 22 -91 3 -128 9 -180 28 -52 19 -120 54 -120 62 0 0 87 0 192 0 l193 -2
-145 9 c-80 5 -179 16 -220 26 -41 9 -111 21 -155 27 l-80 11 -23 90 c-105
413 2 625 313 625 71 0 85 -3 101 -21 10 -12 39 -35 64 -51 l45 -30 -36 34
c-74 69 -76 68 63 63 l123 -5 -85 15 c-47 8 -138 22 -203 31 -109 16 -117 19
-95 31 l23 14 -23 -7 c-13 -3 -70 -16 -127 -29 -111 -25 -149 -41 -207 -87
l-36 -28 -7 55 c-10 73 -4 88 57 170 56 74 212 215 238 215 8 0 76 -13 150
-30 147 -32 324 -61 367 -59 16 0 -19 9 -77 19 -169 29 -400 86 -400 99 0 10
213 111 317 151 81 31 82 31 141 15 74 -19 101 -18 47 1 -22 8 -47 17 -55 20
-8 3 19 19 64 39 91 40 179 91 208 122 15 16 2 12 -53 -17 -41 -22 -78 -40
-83 -40 -4 0 -6 17 -2 38 l5 37 -15 -43 c-10 -25 -25 -47 -38 -52 -93 -37
-489 -190 -492 -190 -1 0 9 21 23 46 14 26 38 78 54 118 27 71 28 71 71 77
l43 6 -37 1 c-21 1 -38 6 -38 12 0 24 72 183 122 270 l20 35 -36 -40 c-20 -22
-53 -73 -74 -114 l-37 -75 -12 40 c-6 21 -12 55 -12 74 -1 19 -6 42 -12 50
-13 18 -4 -114 11 -172 9 -30 6 -48 -15 -103 -37 -100 -92 -198 -133 -240 -35
-36 -190 -140 -198 -133 -11 11 -26 164 -21 223 l4 70 -14 -55 c-9 -37 -12
-90 -10 -164 l5 -108 -72 -68 c-39 -38 -72 -67 -74 -65 -2 1 -14 58 -28 126
-22 112 -23 132 -14 233 11 118 31 242 56 341 15 58 21 66 172 220 172 174
169 177 -11 12 -65 -60 -121 -107 -123 -104 -3 2 9 41 25 85 39 106 84 270 77
285 -2 7 -5 3 -5 -8 -1 -11 -6 -27 -11 -35 -8 -12 -18 -7 -57 30 l-47 45 46
-56 47 -56 -55 -149 c-79 -216 -159 -468 -174 -549 -8 -38 -17 -74 -21 -78 -7
-9 -103 154 -140 237 l-19 45 31 51 c33 54 79 185 78 223 0 12 -8 -3 -18 -33
-31 -96 -96 -209 -111 -193 -10 10 -110 277 -110 292 0 5 16 36 35 68 19 32
35 63 35 68 0 6 -14 -12 -31 -40 -17 -27 -35 -54 -39 -58 -9 -10 -31 61 -65
208 -13 55 -24 91 -24 79z m179 -2241 c-20 -9 -71 -17 -120 -19 l-85 -3 55 19
c33 11 81 19 120 19 l65 -1 -35 -15z m706 -44 c58 -24 69 -44 20 -36 -37 6
-123 45 -133 60 -7 12 65 -3 113 -24z m-636 1 c-8 -6 -52 -22 -98 -36 -46 -15
-99 -37 -118 -50 -27 -18 -48 -24 -92 -24 -31 0 -73 -5 -92 -10 -19 -6 -53 -7
-75 -4 l-40 7 64 19 c77 24 110 44 122 75 8 23 11 23 140 22 72 0 133 2 137 5
3 3 19 6 36 6 24 0 28 -3 16 -10z m496 -16 c49 -29 133 -54 182 -54 25 0 35
-5 41 -23 22 -56 97 -90 283 -127 31 -6 62 -18 68 -26 11 -12 0 -14 -72 -14
-79 0 -88 2 -121 29 -20 15 -55 31 -79 35 -23 4 -57 16 -74 27 -18 11 -49 20
-70 21 -65 2 -234 107 -234 145 0 20 27 16 76 -13z m-278 -37 c5 -39 -10 -52
-80 -76 -55 -19 -63 -19 -89 -6 l-29 15 56 51 c50 46 59 50 97 47 38 -3 42 -6
45 -31z m-258 -26 c0 -17 -26 -29 -77 -33 -62 -6 -68 4 -15 25 41 18 92 22 92
8z m423 -18 c5 -8 22 -26 38 -40 39 -35 37 -64 -6 -98 -30 -22 -42 -26 -73
-20 -58 9 -62 15 -51 63 6 30 6 48 -3 61 -6 10 -8 25 -5 34 11 29 84 29 100 0z
m-372 -53 c23 -13 25 -33 3 -51 -8 -7 -13 -21 -11 -31 4 -16 -1 -18 -42 -18
-38 0 -52 -5 -71 -25 -13 -14 -41 -31 -63 -37 -23 -7 -46 -23 -55 -37 -26 -43
-43 -51 -106 -51 -81 0 -101 7 -115 37 -7 14 -10 26 -9 27 2 1 17 6 33 12 17
5 40 25 53 45 23 35 26 36 98 43 83 7 119 20 110 42 -3 8 -9 21 -12 29 -5 11
7 15 58 18 34 2 73 4 86 5 13 1 32 -3 43 -8z m197 -9 c12 -7 12 -12 1 -30 -11
-17 -11 -25 -1 -41 6 -11 12 -26 12 -34 0 -7 9 -25 20 -39 26 -33 25 -43 -6
-64 -26 -16 -26 -16 -57 19 -18 20 -49 44 -70 54 -25 11 -36 22 -33 31 4 8 6
23 6 33 0 25 36 58 75 69 40 12 38 12 53 2z m-434 -23 c14 -24 6 -28 -58 -35
-46 -5 -55 -3 -51 8 8 21 57 49 79 46 10 -1 24 -10 30 -19z m896 -7 c0 -6 -4
-13 -10 -16 -5 -3 -10 1 -10 9 0 9 5 16 10 16 6 0 10 -4 10 -9z m-1075 -91
c-3 -5 -11 -10 -16 -10 -6 0 -7 5 -4 10 3 6 11 10 16 10 6 0 7 -4 4 -10z m442
-17 c5 -14 -31 -38 -69 -47 -24 -5 -28 -3 -34 20 -4 17 -2 29 7 35 19 13 92 7
96 -8z m628 -31 c-9 -9 -35 8 -35 24 0 16 2 16 20 -1 11 -10 18 -20 15 -23z
m-814 -42 c-48 -22 -61 -21 -36 4 9 9 31 16 48 16 32 0 32 0 -12 -20z"/>
<path d="M2485 3690 c18 -19 65 -28 65 -12 0 17 -25 32 -54 32 -28 0 -29 0
-11 -20z"/>
<path d="M1636 3661 c-20 -38 -20 -65 -1 -81 13 -11 18 -10 30 6 19 25 19 78
1 93 -12 10 -18 7 -30 -18z"/>
<path d="M2901 3663 c-15 -36 3 -86 28 -81 24 5 26 60 3 88 l-18 23 -13 -30z"/>
<path d="M3575 3666 c-33 -14 -55 -52 -55 -93 0 -24 2 -25 42 -20 54 7 88 43
88 93 0 29 -3 34 -22 34 -13 -1 -37 -7 -53 -14z"/>
<path d="M1369 3634 c-31 -51 -35 -111 -9 -152 11 -18 25 -30 30 -27 19 12 50
84 50 117 0 28 -31 98 -44 98 -2 0 -14 -16 -27 -36z"/>
<path d="M3084 3651 c-50 -21 -27 -51 38 -51 40 1 77 25 62 40 -15 15 -75 21
-100 11z"/>
<path d="M1240 3615 c-12 -37 -6 -58 28 -88 20 -18 21 -18 31 2 17 31 13 86
-7 104 -27 25 -39 21 -52 -18z"/>
<path d="M2335 3638 c-30 -16 -55 -50 -55 -75 0 -54 85 -5 96 55 7 35 -4 41
-41 20z"/>
<path d="M1840 3632 c0 -18 26 -32 57 -32 35 0 41 8 21 28 -13 13 -78 17 -78
4z"/>
<path d="M2456 3615 c-26 -24 -34 -59 -17 -70 15 -8 60 37 67 68 8 35 -13 36
-50 2z"/>
<path d="M3692 3624 c-26 -18 -31 -74 -7 -74 23 0 65 46 65 70 0 24 -26 27
-58 4z"/>
<path d="M3234 3620 c-25 -10 -64 -57 -64 -76 0 -41 124 -16 154 31 28 42 21
55 -26 54 -24 0 -53 -4 -64 -9z"/>
<path d="M2810 3613 c-24 -9 -60 -45 -60 -61 0 -11 9 -13 42 -9 68 9 118 78
55 76 -12 0 -29 -3 -37 -6z"/>
<path d="M1695 3580 c-19 -37 -19 -60 2 -89 l16 -24 19 23 c29 36 20 120 -14
120 -4 0 -14 -13 -23 -30z"/>
<path d="M1460 3592 c0 -17 37 -42 63 -42 32 0 36 24 8 40 -24 12 -71 13 -71
2z"/>
<path d="M2526 3586 c7 -17 48 -36 79 -36 31 0 32 14 3 34 -29 20 -90 22 -82
2z"/>
<path d="M1928 3572 c-39 -8 -8 -42 39 -42 22 0 33 5 33 14 0 16 -46 34 -72
28z"/>
<path d="M3033 3555 c-42 -18 -42 -31 0 -44 34 -11 51 -9 95 12 30 14 28 23
-9 36 -40 14 -47 13 -86 -4z"/>
<path d="M1786 3528 c-20 -28 -20 -69 -1 -94 15 -19 15 -19 30 1 23 29 29 63
16 91 -13 30 -25 30 -45 2z"/>
<path d="M2487 3524 c-39 -21 -63 -84 -31 -84 23 0 74 55 74 79 0 25 -6 25
-43 5z"/>
<path d="M3356 3508 c-11 -17 -15 -35 -10 -52 8 -34 19 -40 38 -20 20 19 21
54 2 79 -13 18 -14 17 -30 -7z"/>
<path d="M3674 3523 c-33 -6 -66 -47 -67 -85 -2 -32 -1 -33 37 -32 51 2 89 41
84 88 -3 31 -14 37 -54 29z"/>
<path d="M1140 3480 c0 -48 35 -90 74 -90 56 0 41 91 -19 115 -50 22 -55 19
-55 -25z"/>
<path d="M1482 3501 c-25 -15 37 -54 77 -47 44 7 48 12 26 36 -19 21 -78 27
-103 11z"/>
<path d="M2300 3481 c-13 -32 -7 -66 18 -93 21 -24 28 -23 41 10 14 33 4 67
-27 95 -19 17 -20 17 -32 -12z"/>
<path d="M2747 3504 c-14 -14 -7 -71 11 -88 18 -15 19 -15 31 10 9 20 9 31 -1
52 -14 27 -30 37 -41 26z"/>
<path d="M3204 3499 c-11 -4 -26 -14 -33 -22 -11 -14 -9 -17 15 -23 29 -7 74
11 81 32 5 14 -37 23 -63 13z"/>
<path d="M3444 3476 c-48 -48 -45 -66 11 -66 71 0 125 36 125 84 0 13 -11 16
-51 16 -45 0 -55 -4 -85 -34z"/>
<path d="M1876 3472 c-21 -41 -20 -75 3 -103 20 -24 20 -24 35 -4 21 28 20 88
-3 116 l-18 23 -17 -32z"/>
<path d="M1975 3490 c-9 -15 40 -33 70 -26 22 6 25 9 15 21 -14 17 -76 20 -85
5z"/>
<path d="M3790 3493 c-23 -9 -50 -35 -50 -49 0 -19 34 -26 64 -13 30 14 44 48
25 60 -16 10 -18 10 -39 2z"/>
<path d="M2943 3460 c-30 -12 -29 -28 3 -40 36 -14 94 -12 123 4 l25 14 -32
16 c-34 17 -84 20 -119 6z"/>
<path d="M3286 3448 c-28 -43 1 -113 31 -73 17 24 17 56 -1 80 -13 18 -14 17
-30 -7z"/>
<path d="M1290 3405 c0 -23 24 -45 49 -45 16 0 13 36 -5 54 -23 24 -44 20 -44
-9z"/>
<path d="M1577 3420 c-41 -13 -61 -31 -45 -41 29 -19 128 -1 128 23 0 7 -46
30 -53 27 -1 0 -15 -5 -30 -9z"/>
<path d="M1436 3396 c-17 -28 -21 -71 -7 -81 15 -9 52 47 49 74 -4 34 -22 37
-42 7z"/>
<path d="M1982 3395 c-18 -39 -15 -61 13 -92 24 -27 25 -28 40 -9 20 26 19 70
-1 101 -21 32 -38 32 -52 0z"/>
<path d="M3193 3412 c-31 -5 -51 -31 -32 -43 8 -5 23 -9 34 -9 22 0 65 26 65
39 0 11 -37 18 -67 13z"/>
<path d="M2505 3400 c-33 -13 -70 -59 -58 -71 26 -26 146 41 127 72 -6 11 -42
11 -69 -1z"/>
<path d="M3680 3372 c-48 -48 -37 -72 32 -72 21 0 41 11 66 36 41 41 35 53
-26 61 -36 5 -45 2 -72 -25z"/>
<path d="M2873 3356 l-28 -24 28 -7 c41 -11 105 0 128 21 19 17 19 19 2 25
-41 17 -101 9 -130 -15z"/>
<path d="M3364 3365 c-16 -13 -17 -16 -4 -25 23 -15 63 -12 89 6 18 13 20 18
10 25 -22 14 -73 10 -95 -6z"/>
<path d="M3537 3369 c-23 -13 -37 -51 -30 -78 7 -28 28 -27 59 4 44 44 21 103
-29 74z"/>
<path d="M1066 3361 c-10 -16 5 -41 35 -56 32 -17 105 -20 114 -5 8 14 -15 47
-42 59 -29 13 -100 14 -107 2z"/>
<path d="M2255 3339 c-9 -27 11 -74 41 -94 35 -23 44 -19 44 21 0 26 -8 43
-29 65 -35 34 -47 36 -56 8z"/>
<path d="M1623 3338 c-31 -15 -29 -24 8 -37 40 -14 116 13 98 35 -13 16 -74
17 -106 2z"/>
<path d="M2091 3322 c-15 -28 -14 -57 3 -71 12 -10 17 -8 25 8 15 26 14 43 -3
66 -13 18 -14 18 -25 -3z"/>
<path d="M3146 3319 c-35 -28 -33 -39 9 -39 36 0 81 32 70 50 -10 17 -51 11
-79 -11z"/>
<path d="M3859 3324 c-35 -18 -51 -62 -38 -109 12 -41 30 -45 64 -10 28 27 33
75 12 112 -11 19 -14 20 -38 7z"/>
<path d="M1487 3318 c-24 -13 -47 -69 -40 -96 7 -28 14 -28 41 1 40 43 40 118
-1 95z"/>
<path d="M3343 3310 c-44 -18 -20 -40 42 -40 45 0 63 23 29 38 -29 14 -41 14
-71 2z"/>
<path d="M1265 3299 c-4 -5 1 -19 11 -30 21 -23 94 -27 94 -5 0 34 -88 63
-105 35z"/>
<path d="M1755 3276 c-17 -7 -36 -20 -43 -29 -12 -14 -10 -17 12 -23 15 -3 40
-1 56 6 29 12 57 37 49 44 -14 12 -48 13 -74 2z"/>
<path d="M2763 3269 c-37 -23 -41 -34 -17 -43 29 -11 64 -6 104 14 49 25 56
36 27 44 -41 11 -82 6 -114 -15z"/>
<path d="M3711 3264 c-22 -28 -28 -69 -12 -79 17 -10 60 17 69 44 19 60 -19
83 -57 35z"/>
<path d="M2965 3258 c10 -32 35 -55 67 -63 23 -6 26 -4 21 13 -6 25 -41 58
-71 67 -22 6 -23 5 -17 -17z"/>
<path d="M3624 3253 c-7 -27 12 -75 31 -77 14 -1 18 59 5 84 -15 28 -28 25
-36 -7z"/>
<path d="M1130 3248 c1 -29 53 -68 91 -68 18 0 9 49 -13 64 -27 19 -78 21 -78
4z"/>
<path d="M2444 3241 c-17 -11 -36 -33 -42 -50 -11 -30 -10 -31 16 -31 35 0 68
23 87 60 8 16 15 31 15 35 0 12 -47 4 -76 -14z"/>
<path d="M3289 3231 l-24 -19 35 -9 c36 -10 90 1 90 18 0 12 -35 29 -58 29
-11 0 -30 -9 -43 -19z"/>
<path d="M3508 3235 c-36 -20 -48 -44 -48 -96 0 -41 0 -41 33 -35 48 9 79 49
75 100 -3 46 -18 54 -60 31z"/>
<path d="M1516 3209 c-27 -32 -35 -82 -14 -95 20 -13 58 43 58 87 0 47 -10 49
-44 8z"/>
<path d="M1020 3220 c-23 -16 15 -41 49 -33 41 9 45 15 26 30 -22 15 -54 17
-75 3z"/>
<path d="M1840 3209 c-27 -11 -60 -38 -60 -50 0 -12 57 -21 88 -15 15 4 41 18
57 31 25 21 28 26 15 35 -19 12 -67 12 -100 -1z"/>
<path d="M1274 3198 c-13 -20 43 -58 87 -58 47 0 52 19 13 49 -29 23 -88 28
-100 9z"/>
<path d="M1615 3163 c10 -42 47 -74 93 -80 39 -5 41 -4 35 18 -9 36 -42 68
-82 79 -51 14 -54 13 -46 -17z"/>
<path d="M2823 3168 c-38 -27 -53 -57 -53 -103 0 -43 8 -47 49 -27 44 21 72
67 69 112 -4 43 -22 48 -65 18z"/>
<path d="M2950 3179 c0 -44 100 -120 108 -83 6 24 -27 65 -63 80 -41 17 -45
17 -45 3z"/>
<path d="M3385 3156 c-12 -18 -13 -30 -6 -50 12 -30 14 -31 35 -10 21 20 22
84 1 84 -8 0 -22 -11 -30 -24z"/>
<path d="M3719 3149 c-21 -21 -23 -60 -3 -66 19 -6 44 27 44 58 0 34 -12 37
-41 8z"/>
<path d="M992 3128 c3 -36 36 -65 86 -74 28 -6 32 -4 32 15 0 35 -19 62 -55
77 -54 22 -67 19 -63 -18z"/>
<path d="M1181 3151 c-11 -7 -9 -13 8 -30 22 -22 56 -27 80 -12 11 7 9 13 -8
30 -22 22 -56 27 -80 12z"/>
<path d="M1964 3141 c-71 -33 -67 -61 9 -61 40 0 85 18 106 43 10 12 6 17 -20
26 -42 14 -47 14 -95 -8z"/>
<path d="M3310 3142 c-17 -14 -24 -29 -24 -56 0 -53 17 -64 48 -33 28 28 33
63 13 91 -12 17 -14 17 -37 -2z"/>
<path d="M3856 3134 c-24 -23 -20 -44 9 -44 28 0 69 35 60 50 -10 15 -52 12
-69 -6z"/>
<path d="M1552 3118 c-15 -15 -16 -75 0 -84 17 -11 39 27 36 60 -3 33 -18 42
-36 24z"/>
<path d="M1816 3104 c-12 -31 -5 -61 19 -84 l24 -23 11 28 c12 31 6 57 -16 80
-20 19 -30 19 -38 -1z"/>
<path d="M3211 3106 c-15 -18 -10 -78 6 -83 19 -7 45 42 37 71 -7 29 -25 34
-43 12z"/>
<path d="M1296 3101 c-10 -16 34 -59 67 -65 37 -7 67 0 67 16 0 5 -11 20 -25
33 -17 18 -35 25 -64 25 -22 0 -42 -4 -45 -9z"/>
<path d="M2125 3098 c-11 -6 -25 -19 -32 -27 -17 -22 -16 -61 1 -61 22 0 66
51 66 76 0 27 -6 29 -35 12z"/>
<path d="M3630 3085 c-12 -15 -17 -61 -8 -71 10 -10 40 10 48 32 17 44 -12 72
-40 39z"/>
<path d="M2676 3083 c-19 -20 20 -93 50 -93 16 0 19 33 4 60 -12 23 -44 42
-54 33z"/>
<path d="M2990 3062 c0 -20 39 -62 58 -62 28 0 7 47 -29 66 -27 13 -29 13 -29
-4z"/>
<path d="M2387 3047 c-29 -28 -38 -87 -14 -87 31 0 61 57 48 92 l-8 22 -26
-27z"/>
<path d="M3465 3061 c-7 -13 17 -24 40 -19 9 1 16 8 16 13 0 14 -48 19 -56 6z"/>
<path d="M3795 3054 c-13 -14 -14 -19 -3 -25 21 -13 62 -10 84 6 16 13 17 16
4 25 -23 15 -67 12 -85 -6z"/>
<path d="M1167 3053 c-4 -3 -7 -28 -7 -54 0 -55 31 -100 79 -117 28 -10 30 -9
36 20 11 50 -3 94 -41 127 -34 30 -54 38 -67 24z"/>
<path d="M1672 3053 c-13 -3 -21 -10 -19 -16 6 -21 56 -39 89 -32 29 7 30 8
12 25 -22 21 -50 29 -82 23z"/>
<path d="M1926 3034 c-19 -49 14 -120 42 -92 18 18 14 73 -6 91 -23 21 -28 21
-36 1z"/>
<path d="M936 3021 c-12 -18 25 -81 56 -97 17 -9 48 -14 77 -12 l49 3 -12 34
c-6 19 -22 43 -36 53 -30 22 -124 36 -134 19z"/>
<path d="M3400 3021 c0 -17 43 -41 72 -41 34 0 36 13 6 34 -25 17 -78 22 -78
7z"/>
<path d="M2815 2995 c-35 -34 -32 -49 8 -41 30 6 67 37 67 57 0 19 -52 8 -75
-16z"/>
<path d="M1353 3000 c-26 -11 -29 -20 -11 -38 14 -14 87 -16 108 -2 37 23 -51
59 -97 40z"/>
<path d="M2630 2961 c0 -44 38 -100 58 -87 19 12 14 71 -9 100 -30 39 -49 34
-49 -13z"/>
<path d="M3740 2990 c-23 -15 4 -34 46 -33 70 2 69 43 -1 43 -16 0 -37 -5 -45
-10z"/>
<path d="M2026 2974 c-12 -31 -6 -72 14 -95 20 -24 20 -24 35 -5 21 27 19 59
-6 90 -24 30 -34 33 -43 10z"/>
<path d="M3321 2981 c-26 -17 37 -46 92 -42 28 2 19 21 -18 37 -39 16 -54 17
-74 5z"/>
<path d="M1710 2957 c0 -36 87 -70 120 -48 12 8 11 14 -10 35 -18 20 -33 26
-67 26 -29 0 -43 -4 -43 -13z"/>
<path d="M3230 2951 c0 -18 44 -41 77 -41 38 0 42 12 11 34 -24 17 -88 22 -88
7z"/>
<path d="M3688 2942 c-26 -5 -22 -20 12 -37 32 -17 66 -20 74 -6 12 18 -54 51
-86 43z"/>
<path d="M2156 2908 c-17 -40 -11 -73 17 -97 13 -10 18 -8 31 18 22 41 20 55
-8 88 l-25 28 -15 -37z"/>
<path d="M2802 2920 c-26 -24 -29 -50 -7 -50 36 0 85 38 85 66 0 13 -60 1 -78
-16z"/>
<path d="M1412 2915 c-37 -16 -36 -27 7 -44 21 -9 39 -10 70 -1 43 11 50 20
28 39 -23 19 -70 22 -105 6z"/>
<path d="M3610 2886 c0 -18 36 -41 78 -49 24 -5 32 -3 30 5 -11 32 -108 72
-108 44z"/>
<path d="M1307 2883 c-13 -13 -7 -50 11 -66 29 -26 44 -21 40 14 -3 31 -38 66
-51 52z"/>
<path d="M1828 2873 c-55 -14 17 -66 84 -61 53 4 59 22 16 48 -31 19 -62 23
-100 13z"/>
<path d="M2590 2844 c0 -26 8 -43 29 -65 33 -32 49 -36 57 -14 9 24 -5 65 -31
91 -36 36 -55 31 -55 -12z"/>
<path d="M3923 2868 c-24 -12 -49 -61 -38 -77 3 -6 30 -11 60 -11 46 0 56 4
74 26 12 15 21 35 21 44 0 28 -72 40 -117 18z"/>
<path d="M1045 2862 c-38 -4 -85 -22 -85 -32 0 -16 52 -50 87 -56 37 -7 143
12 143 25 0 4 -11 18 -24 30 -26 25 -74 38 -121 33z"/>
<path d="M3780 2850 c-25 -25 -26 -50 -2 -50 27 0 62 29 62 51 0 25 -34 25
-60 -1z"/>
<path d="M2789 2831 c-37 -38 -37 -51 2 -51 41 0 66 15 84 50 l16 30 -37 0
c-26 0 -43 -8 -65 -29z"/>
<path d="M1390 2821 c0 -27 29 -61 52 -61 16 0 8 57 -10 73 -27 25 -42 21 -42
-12z"/>
<path d="M1484 2828 c-9 -15 40 -58 69 -59 79 -4 99 10 64 45 -21 21 -36 26
-76 26 -27 0 -53 -5 -57 -12z"/>
<path d="M1938 2783 c-24 -6 -23 -19 4 -37 25 -18 95 -21 118 -6 13 9 12 13
-9 30 -22 19 -70 25 -113 13z"/>
<path d="M3470 2765 c0 -28 87 -64 100 -41 7 12 -38 42 -72 50 -21 5 -28 3
-28 -9z"/>
<path d="M2815 2758 c-22 -12 -45 -37 -45 -50 0 -4 19 -8 43 -8 34 0 49 6 70
28 15 16 24 31 20 35 -10 11 -66 8 -88 -5z"/>
<path d="M1174 2746 c-18 -14 -18 -15 9 -25 35 -14 40 -14 71 1 20 9 23 14 15
25 -15 17 -70 17 -95 -1z"/>
<path d="M3606 2751 c-9 -13 36 -48 72 -56 25 -5 32 -3 32 9 0 27 -91 69 -104
47z"/>
<path d="M3751 2751 c-27 -17 51 -43 89 -29 24 9 24 10 6 24 -22 16 -73 18
-95 5z"/>
<path d="M1006 2740 c-40 -12 -70 -41 -54 -52 23 -14 72 -8 107 13 47 28 9 57
-53 39z"/>
<path d="M1644 2735 c-16 -13 -17 -16 -4 -25 22 -14 63 -12 86 4 18 14 18 15
-9 25 -37 15 -49 14 -73 -4z"/>
<path d="M2590 2707 c0 -54 61 -118 81 -86 16 25 9 48 -22 84 -40 45 -59 46
-59 2z"/>
<path d="M1283 2714 c-43 -18 -49 -32 -19 -45 30 -14 83 -5 116 21 l25 19 -28
10 c-36 14 -54 13 -94 -5z"/>
<path d="M2073 2719 c-39 -11 -47 -23 -29 -39 27 -21 126 -7 126 19 0 7 -59
35 -64 30 -1 0 -15 -5 -33 -10z"/>
<path d="M1470 2712 c8 -5 26 -13 40 -16 17 -5 20 -4 10 2 -8 5 -26 13 -40 16
-17 5 -20 4 -10 -2z"/>
<path d="M3902 2704 c-15 -10 -22 -25 -22 -49 0 -41 10 -49 38 -29 22 15 29
57 14 81 -6 10 -13 9 -30 -3z"/>
<path d="M3264 2700 c-26 -10 -54 -48 -54 -72 0 -31 66 -24 101 11 38 39 39
71 2 70 -16 0 -38 -4 -49 -9z"/>
<path d="M3993 2685 c-15 -11 -23 -26 -23 -47 0 -30 1 -30 38 -23 41 7 64 30
60 60 -4 26 -45 31 -75 10z"/>
<path d="M1030 2658 c-24 -13 -45 -28 -47 -34 -5 -15 41 -34 83 -34 38 0 134
37 134 51 0 15 -58 39 -92 39 -19 0 -54 -10 -78 -22z"/>
<path d="M1402 2668 c-12 -6 -21 -16 -19 -22 5 -14 78 -19 97 -7 33 22 -39 48
-78 29z"/>
<path d="M3424 2666 c-33 -15 -44 -33 -44 -72 0 -22 3 -24 28 -18 44 11 62 24
73 51 19 50 0 63 -57 39z"/>
<path d="M3803 2670 c-44 -18 -55 -80 -15 -80 26 0 52 31 52 63 0 29 -3 30
-37 17z"/>
<path d="M3570 2663 c-32 -12 -50 -37 -50 -70 0 -31 2 -34 23 -28 31 9 69 54
65 78 -3 22 -15 28 -38 20z"/>
<path d="M3661 2643 c-12 -10 -23 -31 -24 -48 -2 -28 0 -30 33 -28 39 2 60 24
60 65 0 23 -4 28 -24 28 -13 0 -33 -8 -45 -17z"/>
<path d="M1194 2602 c-12 -2 -30 -12 -39 -22 -16 -18 -16 -20 -1 -26 18 -7 70
11 86 31 12 14 -11 23 -46 17z"/>
<path d="M1639 2561 c-21 -22 -29 -39 -29 -65 0 -44 12 -45 51 -7 21 22 29 39
29 65 0 44 -12 45 -51 7z"/>
<path d="M1249 2557 c-37 -25 -42 -40 -15 -45 27 -6 60 5 90 29 21 17 25 24
14 30 -23 15 -54 10 -89 -14z"/>
<path d="M3947 2573 c-4 -3 -2 -12 4 -20 13 -15 79 -18 79 -3 0 21 -67 40 -83
23z"/>
<path d="M1393 2551 c-42 -20 -83 -74 -63 -86 17 -11 82 27 101 59 32 52 26
56 -38 27z"/>
<path d="M1736 2548 c-18 -26 -20 -56 -6 -78 9 -13 13 -12 30 9 20 24 25 47
14 75 -8 22 -20 20 -38 -6z"/>
<path d="M1502 2535 c-30 -25 -49 -75 -37 -95 17 -28 105 53 105 96 0 32 -30
31 -68 -1z"/>
<path d="M1825 2526 c-13 -20 -14 -29 -4 -47 11 -22 12 -22 25 -4 16 22 18 61
4 70 -5 3 -16 -5 -25 -19z"/>
<path d="M3845 2531 c-9 -16 37 -41 77 -41 43 0 48 12 16 34 -25 17 -83 21
-93 7z"/>
<path d="M3091 2504 c-34 -44 -41 -104 -11 -104 14 0 50 61 50 85 0 41 -16 49
-39 19z"/>
<path d="M3260 2505 c0 -44 51 -95 95 -95 24 0 8 50 -26 83 -32 29 -69 36 -69
12z"/>
<path d="M3750 2514 c0 -26 61 -74 95 -74 16 0 1 32 -26 54 -27 23 -69 35 -69
20z"/>
<path d="M3403 2479 c12 -62 97 -110 97 -55 0 32 -37 73 -74 82 -29 7 -29 6
-23 -27z"/>
<path d="M2013 2483 c-7 -18 15 -64 33 -70 17 -6 25 23 14 51 -11 30 -39 41
-47 19z"/>
<path d="M3650 2480 c15 -28 55 -52 81 -48 22 3 22 3 -5 36 -20 23 -36 32 -57
32 -27 0 -29 -2 -19 -20z"/>
<path d="M2982 2465 c-16 -35 -15 -77 2 -101 14 -18 15 -18 25 9 17 45 12 117
-8 117 -4 0 -13 -11 -19 -25z"/>
<path d="M3530 2476 c0 -20 37 -63 60 -69 29 -7 26 28 -5 58 -26 27 -55 33
-55 11z"/>
<path d="M1916 2461 c-16 -25 29 -81 63 -81 22 0 11 49 -15 69 -29 23 -40 26
-48 12z"/>
<path d="M1810 2420 c0 -23 24 -59 47 -69 13 -6 28 -11 33 -11 19 0 10 41 -15
65 -24 25 -65 34 -65 15z"/>
<path d="M1700 2401 c0 -33 11 -51 41 -66 40 -21 49 -19 49 14 0 20 -9 36 -26
50 -34 27 -64 27 -64 2z"/>
<path d="M1440 2391 c0 -33 11 -51 41 -66 38 -20 59 -19 59 4 0 33 -11 51 -41
66 -38 20 -59 19 -59 -4z"/>
<path d="M3176 2391 c-17 -19 -16 -19 14 -26 35 -8 93 11 87 29 -2 6 -21 12
-43 14 -30 2 -45 -2 -58 -17z"/>
<path d="M1580 2376 c0 -27 42 -66 71 -66 29 0 24 44 -7 69 -37 29 -64 27 -64
-3z"/>
<path d="M1258 2345 c-37 -21 -35 -33 6 -50 38 -16 82 -12 130 12 26 13 27 16
13 31 -23 22 -115 26 -149 7z"/>
<path d="M3300 2352 c-45 -7 -84 -62 -45 -62 24 0 72 27 78 44 7 19 -1 23 -33
18z"/>
<path d="M3600 2353 c-27 -10 -50 -36 -50 -55 0 -15 5 -18 23 -12 32 9 57 34
57 56 0 19 -4 20 -30 11z"/>
<path d="M3362 2334 c-22 -15 -31 -54 -12 -54 26 0 70 32 70 50 0 24 -27 26
-58 4z"/>
<path d="M3462 2327 c-26 -27 -29 -57 -7 -57 20 0 65 45 65 65 0 23 -34 18
-58 -8z"/>
<path d="M3700 2343 c-43 -16 -70 -73 -35 -73 43 0 105 44 105 74 0 7 -50 6
-70 -1z"/>
<path d="M1381 2254 c-18 -13 -20 -18 -10 -25 8 -5 22 -9 32 -9 27 0 88 31 81
41 -9 15 -78 10 -103 -7z"/>
<path d="M2017 2242 c-23 -25 -21 -75 3 -103 l20 -24 20 24 c24 28 26 68 4 99
-18 27 -26 27 -47 4z"/>
<path d="M1643 2230 c-13 -5 -23 -14 -23 -19 0 -20 72 -29 100 -11 32 20 -37
47 -77 30z"/>
<path d="M3605 2230 c-6 -10 30 -37 55 -40 31 -5 60 0 60 10 0 26 -101 53
-115 30z"/>
<path d="M3297 2214 c-3 -3 -1 -16 5 -29 16 -36 88 -62 88 -32 0 28 -76 78
-93 61z"/>
<path d="M3510 2207 c0 -23 24 -47 58 -56 28 -8 32 -7 32 9 0 22 -45 60 -71
60 -11 0 -19 -6 -19 -13z"/>
<path d="M1446 2195 c-20 -7 -43 -19 -52 -26 -15 -12 -14 -15 12 -26 16 -7 45
-12 64 -13 42 0 108 36 93 51 -20 20 -79 27 -117 14z"/>
<path d="M1906 2187 c-19 -19 -26 -36 -26 -66 0 -51 14 -59 45 -25 26 28 33
76 16 103 -7 11 -14 9 -35 -12z"/>
<path d="M3052 2194 c-24 -17 -32 -74 -9 -74 27 0 57 31 57 61 0 33 -14 37
-48 13z"/>
<path d="M3400 2193 c0 -25 27 -49 63 -58 21 -6 27 -4 27 9 0 17 -34 56 -49
56 -5 0 -16 3 -25 6 -11 4 -16 0 -16 -13z"/>
<path d="M1800 2148 c-34 -23 -61 -71 -47 -84 11 -11 55 13 72 40 9 14 15 34
13 46 l-3 22 -35 -24z"/>
<path d="M3131 2151 c-16 -28 -14 -46 8 -72 l19 -24 13 28 c22 49 -16 114 -40
68z"/>
<path d="M1538 2116 c-23 -17 -23 -22 1 -29 22 -5 81 18 81 33 0 14 -62 12
-82 -4z"/>
<path d="M1671 2104 c-26 -33 -28 -56 -3 -47 25 9 62 44 62 60 0 23 -38 14
-59 -13z"/>
<path d="M3216 2104 c-10 -27 -7 -43 14 -64 29 -29 50 -26 50 8 0 40 -53 86
-64 56z"/>
<path d="M3416 2071 c-16 -6 -14 -10 18 -38 40 -36 90 -53 130 -46 32 6 33 14
4 40 -50 45 -107 62 -152 44z"/>
<path d="M3320 2051 c0 -23 45 -61 71 -61 15 0 17 4 8 29 -15 42 -79 68 -79
32z"/>
<path d="M3358 1453 c6 -2 18 -2 25 0 6 3 1 5 -13 5 -14 0 -19 -2 -12 -5z"/>
<path d="M3518 1143 c7 -3 16 -2 19 1 4 3 -2 6 -13 5 -11 0 -14 -3 -6 -6z"/>
</g>
</svg>
